<svg width="33" height="39" viewBox="0 0 33 39" fill="none" xmlns="http://www.w3.org/2000/svg">
<path d="M16.0764 29.5054C11.5105 29.5054 7.82557 25.0369 7.82557 19.5C7.82557 13.9631 11.5105 9.49462 16.0764 9.49462C20.6423 9.49462 24.3272 13.9631 24.3272 19.5C24.3272 25.0369 20.6423 29.5054 16.0764 29.5054ZM16.0764 12.9972C13.1236 12.9972 10.714 15.9193 10.714 19.5C10.714 23.0807 13.1236 26.0028 16.0764 26.0028C19.0291 26.0028 21.4388 23.0807 21.4388 19.5C21.4388 15.9193 19.0291 12.9972 16.0764 12.9972ZM24.6651 32.247C23.599 32.247 22.7382 31.203 22.7382 29.9103C22.7382 28.6175 23.599 27.5736 24.6651 27.5736C25.7311 27.5736 26.592 28.6127 26.592 29.9103C26.5923 30.2173 26.5427 30.5213 26.446 30.805C26.3493 31.0886 26.2073 31.3464 26.0283 31.5634C25.8493 31.7805 25.6368 31.9526 25.4029 32.0699C25.1689 32.1872 24.9182 32.2474 24.6651 32.247ZM32.1596 19.5C32.1596 22.1928 32.1797 24.8612 32.055 27.5492C31.9303 30.6713 31.343 33.4422 29.4603 35.7252C27.5736 38.0131 25.2926 38.7205 22.718 38.8717C20.4974 39.0229 18.297 38.9985 16.0804 38.9985C13.8598 38.9985 11.6593 39.0229 9.44275 38.8717C6.86814 38.7205 4.58318 38.0083 2.70051 35.7252C0.813805 33.4373 0.230497 30.6713 0.10579 27.5492C-0.0189176 24.8564 0.00119656 22.1879 0.00119656 19.5C0.00119656 16.8121 -0.0189176 14.1388 0.10579 11.4508C0.230497 8.3287 0.817828 5.55783 2.70051 3.27479C4.58721 0.98687 6.86814 0.279514 9.44275 0.128288C11.6633 -0.0229378 13.8638 0.00144958 16.0804 0.00144958C18.301 0.00144958 20.5015 -0.0229378 22.718 0.128288C25.2926 0.279514 27.5776 0.991745 29.4603 3.27479C31.347 5.56271 31.9303 8.3287 32.055 11.4508C32.1837 14.1388 32.1596 16.8072 32.1596 19.5ZM28.6195 7.99698C28.3258 7.10913 27.9718 6.44568 27.4046 5.76272C26.8374 5.07488 26.2943 4.64559 25.5622 4.28947C23.4462 3.26991 18.4217 3.49919 16.0764 3.49919C13.7311 3.49919 8.70255 3.26991 6.58655 4.28459C5.85439 4.64071 5.30729 5.07 4.7441 5.75784C4.17688 6.44568 3.82287 7.10425 3.52921 7.9921C2.69246 10.563 2.88153 16.656 2.88153 19.5C2.88153 22.344 2.69246 28.4419 3.52921 31.0079C3.82287 31.8958 4.17688 32.5592 4.7441 33.2422C5.31131 33.9251 5.85439 34.3593 6.58655 34.7154C8.70255 35.7301 13.7311 35.5008 16.0764 35.5008C18.4217 35.5008 23.4502 35.7301 25.5662 34.7154C26.2983 34.3593 26.8455 33.93 27.4086 33.2422C27.9759 32.5543 28.3299 31.8958 28.6235 31.0079C29.4603 28.4419 29.2712 22.344 29.2712 19.5C29.2712 16.656 29.4603 10.563 28.6195 7.99698Z" fill="white"/>
</svg>
