<svg width="40" height="36" viewBox="0 0 40 36" fill="none" xmlns="http://www.w3.org/2000/svg">
<path d="M40 18.2256C40 18.3429 40 18.4762 39.9956 18.6308C39.9912 19.0627 39.9824 19.5479 39.9736 20.0651C39.9384 21.5527 39.8769 23.035 39.7801 24.432C39.6482 26.3569 39.4548 27.9618 39.1909 29.1669C38.9125 30.4244 38.3668 31.5714 37.6083 32.493C36.8498 33.4147 35.9051 34.0788 34.8686 34.4189C33.6242 34.8242 31.1883 35.0748 27.7586 35.2294C26.1273 35.304 24.3816 35.352 22.636 35.3787C22.0248 35.3894 21.4576 35.3947 20.9475 35.4H19.6548C19.1447 35.3947 18.5775 35.3894 17.9663 35.3787C16.2207 35.352 14.475 35.304 12.8437 35.2294C9.41401 35.0694 6.97364 34.8188 5.73367 34.4189C4.69685 34.0796 3.75178 33.4158 2.99317 32.494C2.23457 31.5722 1.68907 30.4249 1.41135 29.1669C1.14313 27.9618 0.95406 26.3569 0.822148 24.432C0.725413 23.035 0.663854 21.5527 0.628677 20.0651C0.615486 19.5479 0.611089 19.0627 0.606692 18.6308C0.606692 18.4762 0.602295 18.3429 0.602295 18.2256V17.927C0.602295 17.8097 0.602295 17.6764 0.606692 17.5217C0.611089 17.0898 0.619883 16.6046 0.628677 16.0874C0.663854 14.5998 0.725413 13.1175 0.822148 11.7205C0.95406 9.79561 1.14753 8.19067 1.41135 6.98563C1.97418 4.43159 3.62748 2.41608 5.73367 1.73358C6.97364 1.32835 9.41401 1.07774 12.8437 0.923115C14.475 0.848469 16.2207 0.800476 17.9663 0.773815C18.5775 0.763153 19.1447 0.75782 19.6548 0.752487H20.9475C21.4576 0.75782 22.0248 0.763153 22.636 0.773815C24.3816 0.800476 26.1273 0.848469 27.7586 0.923115C31.1883 1.08308 33.6286 1.33368 34.8686 1.73358C36.9748 2.41608 38.6281 4.42626 39.1909 6.98563C39.4592 8.19067 39.6482 9.79561 39.7801 11.7205C39.8769 13.1175 39.9384 14.5998 39.9736 16.0874C39.9868 16.6046 39.9912 17.0898 39.9956 17.5217C39.9956 17.6764 40 17.8097 40 17.927V18.2256ZM36.8341 17.9483C36.8341 17.8363 36.8341 17.7137 36.8297 17.5697C36.8253 17.1538 36.8165 16.6953 36.8077 16.1994C36.7769 14.7811 36.7154 13.3627 36.623 12.0457C36.5043 10.3288 36.3372 8.92116 36.1306 7.97739C35.858 6.74569 35.0577 5.76993 34.0464 5.44468C33.123 5.14608 30.7969 4.90614 27.6354 4.76218C26.0349 4.68753 24.3113 4.63954 22.592 4.61288C21.9896 4.60221 21.4312 4.59689 20.9299 4.59689H19.6724L18.0103 4.61288C16.291 4.63954 14.5718 4.68753 12.9668 4.76218C9.80535 4.91147 7.47491 5.14608 6.55592 5.44468C5.5446 5.77526 4.74433 6.74569 4.47171 7.97739C4.26505 8.92116 4.09796 10.3288 3.97924 12.0457C3.8869 13.3627 3.82974 14.7811 3.79456 16.1994C3.78137 16.6953 3.77698 17.1591 3.77258 17.5697C3.77258 17.7137 3.76818 17.8416 3.76818 17.9483V18.2042C3.76818 18.3162 3.76818 18.4388 3.77258 18.5828C3.77698 18.9987 3.78577 19.4573 3.79456 19.9531C3.82534 21.3715 3.8869 22.7898 3.97924 24.1068C4.09796 25.8237 4.26505 27.2314 4.47171 28.1751C4.74433 29.4068 5.5446 30.3826 6.55592 30.7078C7.4793 31.0064 9.80535 31.2464 12.9668 31.3903C14.5674 31.465 16.291 31.513 18.0103 31.5396C18.6127 31.5503 19.1711 31.5556 19.6724 31.5556H20.9299L22.592 31.5396C24.3113 31.513 26.0305 31.465 27.6354 31.3903C30.7969 31.241 33.1274 31.0064 34.0464 30.7078C35.0577 30.3773 35.858 29.4068 36.1306 28.1751C36.3372 27.2314 36.5043 25.8237 36.623 24.1068C36.7154 22.7898 36.7725 21.3715 36.8077 19.9531C36.8209 19.4573 36.8253 18.9934 36.8297 18.5828C36.8297 18.4388 36.8341 18.3109 36.8341 18.2042V17.9483ZM16.3878 10.9313L26.5889 18.1296L16.3878 25.2212V10.9313Z" fill="white"/>
</svg>
